/* XPM */
static char *minimap_sides_xpm[] = {
/* columns rows colors chars-per-pixel */
"124 84 2 1 ",
"1  c #FFFFFF",
"  c None",
/* pixels */
"1111111111111111111111111111111111111111111111111111111111111111111111111111111111111111111111111111111111111111111111111111"
"1111111111111111111111111111111111111111111111111111111111111111111111111111111111111111111111111111111111111111111111111111"
"11                                                                                                                        11"
"11                                                                                                                        11"
"11                                                                                                                        11"
"11                                                                                                                        11"
"11                                                                                                                        11"
"11                                                                                                                        11"
"11                                                                                                                        11"
"11                                                                                                                        11"
"11                                                                                                                        11"
"11                                                                                                                        11"
"11                                                                                                                        11"
"11                                                                                                                        11"
"11                                                                                                                        11"
"11                                                                                                                        11"
"11                                                                                                                        11"
"11                                                                                                                        11"
"11                                                                                                                        11"
"11                                                                                                                        11"
"11                                                                                                                        11"
"11                                                                                                                        11"
"11                                                                                                                        11"
"11                                                                                                                        11"
"11                                                                                                                        11"
"11                                                                                                                        11"
"11                                                                                                                        11"
"11                                                                                                                        11"
"11                                                                                                                        11"
"11                                                                                                                        11"
"11                                                                                                                        11"
"11                                                                                                                        11"
"11                                                                                                                        11"
"11                                                                                                                        11"
"11                                                                                                                        11"
"11                                                                                                                        11"
"11                                                                                                                        11"
"11                                                                                                                        11"
"11                                                                                                                        11"
"11                                                                                                                        11"
"11                                                                                                                        11"
"11                                                                                                                        11"
"11                                                                                                                        11"
"11                                                                                                                        11"
"11                                                                                                                        11"
"11                                                                                                                        11"
"11                                                                                                                        11"
"11                                                                                                                        11"
"11                                                                                                                        11"
"11                                                                                                                        11"
"11                                                                                                                        11"
"11                                                                                                                        11"
"11                                                                                                                        11"
"11                                                                                                                        11"
"11                                                                                                                        11"
"11                                                                                                                        11"
"11                                                                                                                        11"
"11                                                                                                                        11"
"11                                                                                                                        11"
"11                                                                                                                        11"
"11                                                                                                                        11"
"11                                                                                                                        11"
"11                                                                                                                        11"
"11                                                                                                                        11"
"11                                                                                                                        11"
"11                                                                                                                        11"
"11                                                                                                                        11"
"11                                                                                                                        11"
"11                                                                                                                        11"
"11                                                                                                                        11"
"11                                                                                                                        11"
"11                                                                                                                        11"
"11                                                                                                                        11"
"11                                                                                                                        11"
"11                                                                                                                        11"
"11                                                                                                                        11"
"11                                                                                                                        11"
"11                                                                                                                        11"
"11                                                                                                                        11"
"11                                                                                                                        11"
"11                                                                                                                        11"
"11                                                                                                                        11"
"1111111111111111111111111111111111111111111111111111111111111111111111111111111111111111111111111111111111111111111111111111"
"1111111111111111111111111111111111111111111111111111111111111111111111111111111111111111111111111111111111111111111111111111"
};